<?xml version="1.0" encoding="utf-8"?>
<!-- Generator: Adobe Illustrator 23.0.1, SVG Export Plug-In . SVG Version: 6.00 Build 0)  -->
<svg version="1.1" id="Layer_1" xmlns="http://www.w3.org/2000/svg" xmlns:xlink="http://www.w3.org/1999/xlink" x="0px" y="0px"
	 viewBox="0 0 407.3 266.3" style="enable-background:new 0 0 407.3 266.3;" xml:space="preserve">
<style type="text/css">
	.st0{fill:url(#SVGID_1_);}
	.st1{fill:url(#SVGID_2_);}
	.st2{fill:url(#SVGID_3_);}
	.st3{fill:url(#SVGID_4_);}
	.st4{fill:url(#SVGID_5_);}
	.st5{fill:url(#SVGID_6_);}
	.st6{fill:url(#SVGID_7_);}
	.st7{fill:url(#SVGID_8_);}
	.st8{fill:url(#SVGID_9_);}
</style>
<g>
	
		<linearGradient id="SVGID_1_" gradientUnits="userSpaceOnUse" x1="409.544" y1="167.7368" x2="318.774" y2="52.7469" gradientTransform="matrix(1 0 0 -1 -217.3 103.5)">
		<stop  offset="0" style="stop-color:#282555"/>
		<stop  offset="0" style="stop-color:#312659"/>
		<stop  offset="1" style="stop-color:#CA007F"/>
	</linearGradient>
	<path class="st0" d="M17.7,127.9L50,92h20.5L40,126.1l32.9,48.2H52.3l-24.1-35.2l-10.5,11.7v23.5H0V92h17.7V127.9z"/>
	
		<linearGradient id="SVGID_2_" gradientUnits="userSpaceOnUse" x1="297.6246" y1="249.0442" x2="206.8546" y2="134.0542" gradientTransform="matrix(1 0 0 -1 0 268)">
		<stop  offset="0" style="stop-color:#282555"/>
		<stop  offset="0" style="stop-color:#312659"/>
		<stop  offset="1" style="stop-color:#CA007F"/>
	</linearGradient>
	<polygon class="st1" points="177.4,146.1 177.4,174.3 194.9,174.3 194.9,124.5 	"/>
	
		<linearGradient id="SVGID_3_" gradientUnits="userSpaceOnUse" x1="244.9001" y1="290.6699" x2="154.1301" y2="175.6799" gradientTransform="matrix(1 0 0 -1 0 268)">
		<stop  offset="0" style="stop-color:#282555"/>
		<stop  offset="0" style="stop-color:#312659"/>
		<stop  offset="1" style="stop-color:#CA007F"/>
	</linearGradient>
	<polygon class="st2" points="252.9,0 150.4,127.2 122.8,92 106.9,92 106.9,174.3 124.7,174.3 124.5,119.7 140.3,139.6 140.3,139.6 
		150.9,152.8 274.5,0 	"/>
	
		<linearGradient id="SVGID_4_" gradientUnits="userSpaceOnUse" x1="409.544" y1="167.7368" x2="318.774" y2="52.7469" gradientTransform="matrix(1 0 0 -1 -217.3 103.5)">
		<stop  offset="0" style="stop-color:#282555"/>
		<stop  offset="0" style="stop-color:#312659"/>
		<stop  offset="1" style="stop-color:#CA007F"/>
	</linearGradient>
	<path class="st3" d="M17.7,127.9L50,92h20.5L40,126.1l32.9,48.2H52.3l-24.1-35.2l-10.5,11.7v23.5H0V92h17.7V127.9z"/>
	
		<linearGradient id="SVGID_5_" gradientUnits="userSpaceOnUse" x1="297.6246" y1="249.0442" x2="206.8546" y2="134.0542" gradientTransform="matrix(1 0 0 -1 0 268)">
		<stop  offset="0" style="stop-color:#282555"/>
		<stop  offset="0" style="stop-color:#312659"/>
		<stop  offset="1" style="stop-color:#CA007F"/>
	</linearGradient>
	<polygon class="st4" points="177.4,146.1 177.4,174.3 194.9,174.3 194.9,124.5 	"/>
	
		<linearGradient id="SVGID_6_" gradientUnits="userSpaceOnUse" x1="244.9001" y1="290.6699" x2="154.1301" y2="175.6799" gradientTransform="matrix(1 0 0 -1 0 268)">
		<stop  offset="0" style="stop-color:#282555"/>
		<stop  offset="0" style="stop-color:#312659"/>
		<stop  offset="1" style="stop-color:#CA007F"/>
	</linearGradient>
	<polygon class="st5" points="252.9,0 150.4,127.2 122.8,92 106.9,92 106.9,174.3 124.7,174.3 124.5,119.7 140.3,139.6 140.3,139.6 
		150.9,152.8 274.5,0 	"/>
	
		<linearGradient id="SVGID_7_" gradientUnits="userSpaceOnUse" x1="538.5668" y1="-100.1153" x2="446.4468" y2="-217.7954" gradientTransform="matrix(1 0 0 -1 -217.3 103.5)">
		<stop  offset="0" style="stop-color:#0BBBEF"/>
		<stop  offset="0.99" style="stop-color:#2F2871"/>
	</linearGradient>
	<path class="st6" d="M407.3,158.4v15.8h-61.7V92h60.5v15.9h-42.9v16.5h33.5v15.8h-33.5v18.2H407.3z"/>
	
		<linearGradient id="SVGID_8_" gradientUnits="userSpaceOnUse" x1="221.1619" y1="142.7485" x2="129.0419" y2="25.0785" gradientTransform="matrix(1 0 0 -1 0 268)">
		<stop  offset="0" style="stop-color:#0BBBEF"/>
		<stop  offset="0.99" style="stop-color:#2F2871"/>
	</linearGradient>
	<polygon class="st7" points="245,120.2 245,92 227.4,92 227.4,141.8 	"/>
	
		<linearGradient id="SVGID_9_" gradientUnits="userSpaceOnUse" x1="273.7664" y1="101.5728" x2="181.6364" y2="-16.0972" gradientTransform="matrix(1 0 0 -1 0 268)">
		<stop  offset="0" style="stop-color:#0BBBEF"/>
		<stop  offset="0.99" style="stop-color:#2F2871"/>
	</linearGradient>
	<polygon class="st8" points="169.4,266.3 271.9,139.1 299.6,174.3 315.4,174.3 315.4,92 297.6,92 297.8,146.6 282,126.7 282,126.6 
		271.4,113.5 147.8,266.3 	"/>
</g>
</svg>
